{
    "asset": {
        "copyright": "2020 (c) Adobe Inc.",
        "generator": "Adobe Dimension - 3de52ae4ccc0c25be48106335282fae5a6a58dee",
        "version": "2.0"
    },
    "accessors": [
        {
            "bufferView": 0,
            "componentType": 5126,
            "count": 4751,
            "type": "VEC3",
            "max": [
                10.100000381469727,
                10.100000381469727,
                10.100000381469727
            ],
            "min": [
                -10.100000381469727,
                -10.100000381469727,
                -10.100000381469727
            ]
        },
        {
            "bufferView": 1,
            "componentType": 5126,
            "count": 4751,
            "type": "VEC3"
        },
        {
            "bufferView": 2,
            "componentType": 5126,
            "count": 4751,
            "type": "VEC2"
        },
        {
            "bufferView": 3,
            "componentType": 5125,
            "count": 27072,
            "type": "SCALAR",
            "max": [
                4750.0
            ],
            "min": [
                0.0
            ]
        },
        {
            "bufferView": 4,
            "componentType": 5126,
            "count": 4822,
            "type": "VEC3",
            "max": [
                10.100000381469727,
                10.100000381469727,
                10.100000381469727
            ],
            "min": [
                -10.100000381469727,
                -10.100000381469727,
                -10.100000381469727
            ]
        },
        {
            "bufferView": 5,
            "componentType": 5126,
            "count": 4822,
            "type": "VEC3"
        },
        {
            "bufferView": 6,
            "componentType": 5126,
            "count": 4822,
            "type": "VEC2"
        },
        {
            "bufferView": 7,
            "componentType": 5125,
            "count": 27072,
            "type": "SCALAR",
            "max": [
                4821.0
            ],
            "min": [
                0.0
            ]
        }
    ],
    "bufferViews": [
        {
            "buffer": 0,
            "byteOffset": 0,
            "byteLength": 57012,
            "target": 34962
        },
        {
            "buffer": 0,
            "byteOffset": 57012,
            "byteLength": 57012,
            "target": 34962
        },
        {
            "buffer": 0,
            "byteOffset": 114024,
            "byteLength": 38008,
            "target": 34962
        },
        {
            "buffer": 0,
            "byteOffset": 152032,
            "byteLength": 108288,
            "target": 34963
        },
        {
            "buffer": 0,
            "byteOffset": 260320,
            "byteLength": 57864,
            "target": 34962
        },
        {
            "buffer": 0,
            "byteOffset": 318184,
            "byteLength": 57864,
            "target": 34962
        },
        {
            "buffer": 0,
            "byteOffset": 376048,
            "byteLength": 38576,
            "target": 34962
        },
        {
            "buffer": 0,
            "byteOffset": 414624,
            "byteLength": 108288,
            "target": 34963
        }
    ],
    "buffers": [
        {
            "byteLength": 522912,
            "uri": "test3_binary.bin"
        }
    ],
    "cameras": [
        {
            "perspective": {
                "znear": 0.002655862597748637,
                "yfov": 0.6024156808853149,
                "zfar": 146.07244873046876,
                "aspectRatio": 1.3333333730697632
            },
            "type": "perspective",
            "name": "render_camera"
        }
    ],
    "images": [
        {
            "name": "normal",
            "uri": "test3_images\\normal.png",
            "mimeType": "image/png"
        },
        {
            "name": "roughness",
            "uri": "test3_images\\roughness.png",
            "mimeType": "image/png"
        }
    ],
    "materials": [
        {
            "pbrMetallicRoughness": {
                "baseColorFactor": [
                    0.0,
                    0.0,
                    0.0,
                    1.0
                ],
                "metallicFactor": 0.0,
                "roughnessFactor": 0.5
            },
            "name": "Mat.4",
            "doubleSided": true
        },
        {
            "pbrMetallicRoughness": {
                "baseColorFactor": [
                    0.800000011920929,
                    0.312000036239624,
                    0.312000036239624,
                    1.0
                ],
                "metallicFactor": 0.0,
                "roughnessFactor": 0.15000000596046449
            },
            "name": "Mat.3",
            "doubleSided": true
        },
        {
            "pbrMetallicRoughness": {
                "baseColorFactor": [
                    0.05888000503182411,
                    0.07999999821186066,
                    0.0272000003606081,
                    1.0
                ],
                "metallicFactor": 0.8399999737739563,
                "roughnessFactor": 0.10999999940395355
            },
            "name": "Mat.2",
            "doubleSided": true
        },
        {
            "pbrMetallicRoughness": {
                "baseColorFactor": [
                    0.23999997973442079,
                    0.36133334040641787,
                    0.800000011920929,
                    1.0
                ],
                "metallicFactor": 0.0,
                "roughnessFactor": 0.6899999976158142
            },
            "normalTexture": {
                "index": 0
            },
            "name": "Mat.1",
            "doubleSided": true
        },
        {
            "pbrMetallicRoughness": {
                "baseColorFactor": [
                    0.800000011920929,
                    0.4560000002384186,
                    0.6738666892051697,
                    1.0
                ],
                "metallicFactor": 0.0,
                "metallicRoughnessTexture": {
                    "index": 1
                }
            },
            "name": "Mat",
            "doubleSided": true
        }
    ],
    "meshes": [
        {
            "name": "Sphere 0",
            "primitives": [
                {
                    "attributes": {
                        "POSITION": 0,
                        "NORMAL": 1,
                        "TEXCOORD_0": 2
                    },
                    "indices": 3,
                    "material": 0
                }
            ]
        },
        {
            "name": "Sphere.1 1",
            "primitives": [
                {
                    "attributes": {
                        "NORMAL": 1,
                        "POSITION": 0,
                        "TEXCOORD_0": 2
                    },
                    "indices": 3,
                    "material": 1
                }
            ]
        },
        {
            "name": "Sphere.2 2",
            "primitives": [
                {
                    "attributes": {
                        "POSITION": 0,
                        "NORMAL": 1,
                        "TEXCOORD_0": 2
                    },
                    "indices": 3,
                    "material": 2
                }
            ]
        },
        {
            "name": "Sphere.3 3",
            "primitives": [
                {
                    "attributes": {
                        "NORMAL": 1,
                        "POSITION": 0,
                        "TEXCOORD_0": 2
                    },
                    "indices": 3,
                    "material": 3
                }
            ]
        },
        {
            "name": "Sphere 4",
            "primitives": [
                {
                    "attributes": {
                        "POSITION": 4,
                        "NORMAL": 5,
                        "TEXCOORD_0": 6
                    },
                    "indices": 7,
                    "material": 4
                }
            ]
        }
    ],
    "nodes": [
        {
            "translation": [
                0.5,
                0.29999998211860659,
                0.5
            ],
            "rotation": [
                -0.12059047073125839,
                0.379409521818161,
                0.04995020851492882,
                0.9159756302833557
            ],
            "scale": [
                1.0,
                1.0,
                0.9999999403953552
            ],
            "camera": 0,
            "name": "render_camera_n3d"
        },
        {
            "children": [
                2
            ],
            "name": "test3"
        },
        {
            "children": [
                3,
                4,
                5,
                6,
                7
            ],
            "translation": [
                101.39065551757813,
                37.66859817504883,
                0.0
            ],
            "name": "Cloner"
        },
        {
            "mesh": 0,
            "name": "Sphere 0"
        },
        {
            "translation": [
                27.371000289916993,
                0.0,
                0.0
            ],
            "mesh": 1,
            "name": "Sphere.1 1"
        },
        {
            "translation": [
                54.742000579833987,
                0.0,
                0.0
            ],
            "mesh": 2,
            "name": "Sphere.2 2"
        },
        {
            "translation": [
                82.11299896240235,
                0.0,
                0.0
            ],
            "mesh": 3,
            "name": "Sphere.3 3"
        },
        {
            "translation": [
                109.48400115966797,
                0.0,
                0.0
            ],
            "mesh": 4,
            "name": "Sphere 4"
        }
    ],
    "samplers": [
        {},
        {}
    ],
    "scenes": [
        {
            "nodes": [
                0,
                1
            ],
            "name": "scene"
        }
    ],
    "textures": [
        {
            "name": "tmp_image_pie_7ed3_774a_e3af",
            "sampler": 0,
            "source": 0
        },
        {
            "name": "roughness",
            "sampler": 1,
            "source": 1
        }
    ],
    "scene": 0
}