<?xml version="1.0" encoding="utf-8"?>
<!-- Generator: Adobe Illustrator 26.3.1, SVG Export Plug-In . SVG Version: 6.00 Build 0)  -->
<svg version="1.1" xmlns="http://www.w3.org/2000/svg" xmlns:xlink="http://www.w3.org/1999/xlink" x="0px" y="0px"
	 viewBox="0 0 100 100" style="enable-background:new 0 0 100 100;" xml:space="preserve">
<style type="text/css">
	.st0{clip-path:url(#SVGID_00000109720814741254215330000002057015256104601530_);}
	.st1{fill:#E7E8BF;}
	.st2{fill:#231F20;}
</style>
<g id="BG">
</g>
<g id="Shadow">
</g>
<g id="Color">
</g>
<g id="Badge">
</g>
<g id="Details">
	<g>
		<g>
			<defs>
				<path id="SVGID_1_" d="M50,100L50,100C22.4,100,0,77.6,0,50v0C0,22.4,22.4,0,50,0h0c27.6,0,50,22.4,50,50v0
					C100,77.6,77.6,100,50,100z"/>
			</defs>
			<clipPath id="SVGID_00000072282591722524572250000006909097910400455577_">
				<use xlink:href="#SVGID_1_"  style="overflow:visible;"/>
			</clipPath>
			<g style="clip-path:url(#SVGID_00000072282591722524572250000006909097910400455577_);">
				<g>
					<polygon class="st1" points="9.6,33.4 9.6,26.8 3.9,23.4 -1.9,26.8 -1.9,33.4 3.9,36.8 					"/>
					<path class="st2" d="M3.9,37.1l-6-3.5v-6.9l6-3.5l6,3.5v6.9L3.9,37.1z M-1.6,33.3l5.5,3.2l5.5-3.2v-6.4l-5.5-3.2l-5.5,3.2V33.3
						z"/>
				</g>
				<g>
					<polygon class="st1" points="21.2,33.4 21.2,26.8 15.4,23.4 9.6,26.8 9.6,33.4 15.4,36.8 					"/>
					<path class="st2" d="M15.4,37.1l-6-3.5v-6.9l6-3.5l6,3.5v6.9L15.4,37.1z M9.9,33.3l5.5,3.2l5.5-3.2v-6.4l-5.5-3.2l-5.5,3.2
						V33.3z"/>
				</g>
				<g>
					<polygon class="st1" points="32.7,33.4 32.7,26.8 26.9,23.4 21.2,26.8 21.2,33.4 26.9,36.8 					"/>
					<path class="st2" d="M26.9,37.1l-6-3.5v-6.9l6-3.5l6,3.5v6.9L26.9,37.1z M21.4,33.3l5.5,3.2l5.5-3.2v-6.4l-5.5-3.2l-5.5,3.2
						V33.3z"/>
				</g>
				<g>
					<polygon class="st1" points="44.2,33.4 44.2,26.8 38.5,23.4 32.7,26.8 32.7,33.4 38.5,36.8 					"/>
					<path class="st2" d="M38.5,37.1l-6-3.5v-6.9l6-3.5l6,3.5v6.9L38.5,37.1z M33,33.3l5.5,3.2l5.5-3.2v-6.4l-5.5-3.2L33,26.9V33.3z
						"/>
				</g>
				<g>
					<polygon class="st1" points="55.8,33.4 55.8,26.8 50,23.4 44.2,26.8 44.2,33.4 50,36.8 					"/>
					<path class="st2" d="M50,37.1l-6-3.5v-6.9l6-3.5l6,3.5v6.9L50,37.1z M44.5,33.3l5.5,3.2l5.5-3.2v-6.4L50,23.7l-5.5,3.2V33.3z"
						/>
				</g>
				<g>
					<polygon class="st1" points="67.3,33.4 67.3,26.8 61.5,23.4 55.8,26.8 55.8,33.4 61.5,36.8 					"/>
					<path class="st2" d="M61.5,37.1l-6-3.5v-6.9l6-3.5l6,3.5v6.9L61.5,37.1z M56,33.3l5.5,3.2l5.5-3.2v-6.4l-5.5-3.2L56,26.9V33.3z
						"/>
				</g>
				<g>
					<polygon class="st1" points="78.8,33.4 78.8,26.8 73.1,23.4 67.3,26.8 67.3,33.4 73.1,36.8 					"/>
					<path class="st2" d="M73.1,37.1l-6-3.5v-6.9l6-3.5l6,3.5v6.9L73.1,37.1z M67.5,33.3l5.5,3.2l5.5-3.2v-6.4l-5.5-3.2l-5.5,3.2
						V33.3z"/>
				</g>
				<g>
					<polygon class="st1" points="15.4,43.4 15.4,36.8 9.6,33.4 3.9,36.8 3.9,43.4 9.6,46.7 					"/>
					<path class="st2" d="M9.6,47l-6-3.5v-6.9l6-3.5l6,3.5v6.9L9.6,47z M4.1,43.3l5.5,3.2l5.5-3.2v-6.4l-5.5-3.2l-5.5,3.2V43.3z"/>
				</g>
				<g>
					<polygon class="st1" points="26.9,43.4 26.9,36.8 21.2,33.4 15.4,36.8 15.4,43.4 21.2,46.7 					"/>
					<path class="st2" d="M21.2,47l-6-3.5v-6.9l6-3.5l6,3.5v6.9L21.2,47z M15.7,43.3l5.5,3.2l5.5-3.2v-6.4l-5.5-3.2l-5.5,3.2V43.3z"
						/>
				</g>
				<g>
					<polygon class="st1" points="38.5,43.4 38.5,36.8 32.7,33.4 26.9,36.8 26.9,43.4 32.7,46.7 					"/>
					<path class="st2" d="M32.7,47l-6-3.5v-6.9l6-3.5l6,3.5v6.9L32.7,47z M27.2,43.3l5.5,3.2l5.5-3.2v-6.4l-5.5-3.2l-5.5,3.2V43.3z"
						/>
				</g>
				<g>
					<polygon class="st1" points="50,43.4 50,36.8 44.2,33.4 38.5,36.8 38.5,43.4 44.2,46.7 					"/>
					<path class="st2" d="M44.2,47l-6-3.5v-6.9l6-3.5l6,3.5v6.9L44.2,47z M38.7,43.3l5.5,3.2l5.5-3.2v-6.4l-5.5-3.2l-5.5,3.2V43.3z"
						/>
				</g>
				<g>
					<polygon class="st1" points="61.5,43.4 61.5,36.8 55.8,33.4 50,36.8 50,43.4 55.8,46.7 					"/>
					<path class="st2" d="M55.8,47l-6-3.5v-6.9l6-3.5l6,3.5v6.9L55.8,47z M50.2,43.3l5.5,3.2l5.5-3.2v-6.4l-5.5-3.2l-5.5,3.2V43.3z"
						/>
				</g>
				<g>
					<polygon class="st1" points="73.1,43.4 73.1,36.8 67.3,33.4 61.5,36.8 61.5,43.4 67.3,46.7 					"/>
					<path class="st2" d="M67.3,47l-6-3.5v-6.9l6-3.5l6,3.5v6.9L67.3,47z M61.8,43.3l5.5,3.2l5.5-3.2v-6.4l-5.5-3.2l-5.5,3.2V43.3z"
						/>
				</g>
				<g>
					<polygon class="st1" points="84.6,43.4 84.6,36.8 78.8,33.4 73.1,36.8 73.1,43.4 78.8,46.7 					"/>
					<path class="st2" d="M78.8,47l-6-3.5v-6.9l6-3.5l6,3.5v6.9L78.8,47z M73.3,43.3l5.5,3.2l5.5-3.2v-6.4l-5.5-3.2l-5.5,3.2V43.3z"
						/>
				</g>
				<g>
					<polygon class="st1" points="15.4,23.5 15.4,16.8 9.6,13.5 3.9,16.8 3.9,23.5 9.6,26.8 					"/>
					<path class="st2" d="M9.6,27.1l-6-3.5v-6.9l6-3.5l6,3.5v6.9L9.6,27.1z M4.1,23.3l5.5,3.2l5.5-3.2v-6.4l-5.5-3.2l-5.5,3.2V23.3z
						"/>
				</g>
				<g>
					<polygon class="st1" points="3.9,43.4 3.9,36.8 -1.9,33.4 -7.7,36.8 -7.7,43.4 -1.9,46.7 					"/>
					<path class="st2" d="M-1.9,47l-6-3.5v-6.9l6-3.5l6,3.5v6.9L-1.9,47z M-7.4,43.3l5.5,3.2l5.5-3.2v-6.4l-5.5-3.2l-5.5,3.2V43.3z"
						/>
				</g>
				<g>
					<polygon class="st1" points="9.6,53.3 9.6,46.7 3.9,43.3 -1.9,46.7 -1.9,53.3 3.9,56.7 					"/>
					<path class="st2" d="M3.9,56.9l-6-3.5v-6.9l6-3.5l6,3.5v6.9L3.9,56.9z M-1.6,53.2l5.5,3.2l5.5-3.2v-6.4l-5.5-3.2l-5.5,3.2V53.2
						z"/>
				</g>
				<g>
					<polygon class="st1" points="21.2,53.3 21.2,46.7 15.4,43.3 9.6,46.7 9.6,53.3 15.4,56.7 					"/>
					<path class="st2" d="M15.4,56.9l-6-3.5v-6.9l6-3.5l6,3.5v6.9L15.4,56.9z M9.9,53.2l5.5,3.2l5.5-3.2v-6.4l-5.5-3.2l-5.5,3.2
						V53.2z"/>
				</g>
				<g>
					<polygon class="st1" points="32.7,53.3 32.7,46.7 26.9,43.3 21.2,46.7 21.2,53.3 26.9,56.7 					"/>
					<path class="st2" d="M26.9,56.9l-6-3.5v-6.9l6-3.5l6,3.5v6.9L26.9,56.9z M21.4,53.2l5.5,3.2l5.5-3.2v-6.4l-5.5-3.2l-5.5,3.2
						V53.2z"/>
				</g>
				<g>
					<polygon class="st1" points="44.2,53.3 44.2,46.7 38.5,43.3 32.7,46.7 32.7,53.3 38.5,56.7 					"/>
					<path class="st2" d="M38.5,56.9l-6-3.5v-6.9l6-3.5l6,3.5v6.9L38.5,56.9z M33,53.2l5.5,3.2l5.5-3.2v-6.4l-5.5-3.2L33,46.8V53.2z
						"/>
				</g>
				<g>
					<polygon class="st1" points="55.8,53.3 55.8,46.7 50,43.3 44.2,46.7 44.2,53.3 50,56.7 					"/>
					<path class="st2" d="M50,56.9l-6-3.5v-6.9l6-3.5l6,3.5v6.9L50,56.9z M44.5,53.2l5.5,3.2l5.5-3.2v-6.4L50,43.6l-5.5,3.2V53.2z"
						/>
				</g>
				<g>
					<polygon class="st1" points="67.3,53.3 67.3,46.7 61.5,43.3 55.8,46.7 55.8,53.3 61.5,56.7 					"/>
					<path class="st2" d="M61.5,56.9l-6-3.5v-6.9l6-3.5l6,3.5v6.9L61.5,56.9z M56,53.2l5.5,3.2l5.5-3.2v-6.4l-5.5-3.2L56,46.8V53.2z
						"/>
				</g>
				<g>
					<polygon class="st1" points="78.8,53.3 78.8,46.7 73.1,43.3 67.3,46.7 67.3,53.3 73.1,56.7 					"/>
					<path class="st2" d="M73.1,56.9l-6-3.5v-6.9l6-3.5l6,3.5v6.9L73.1,56.9z M67.5,53.2l5.5,3.2l5.5-3.2v-6.4l-5.5-3.2l-5.5,3.2
						V53.2z"/>
				</g>
				<g>
					<polygon class="st1" points="15.4,63.3 15.4,56.6 9.6,53.3 3.9,56.6 3.9,63.3 9.6,66.6 					"/>
					<path class="st2" d="M9.6,66.9l-6-3.5v-6.9l6-3.5l6,3.5v6.9L9.6,66.9z M4.1,63.2l5.5,3.2l5.5-3.2v-6.4l-5.5-3.2l-5.5,3.2V63.2z
						"/>
				</g>
				<g>
					<polygon class="st1" points="26.9,63.3 26.9,56.6 21.2,53.3 15.4,56.6 15.4,63.3 21.2,66.6 					"/>
					<path class="st2" d="M21.2,66.9l-6-3.5v-6.9l6-3.5l6,3.5v6.9L21.2,66.9z M15.7,63.2l5.5,3.2l5.5-3.2v-6.4l-5.5-3.2l-5.5,3.2
						V63.2z"/>
				</g>
				<g>
					<polygon class="st1" points="38.5,63.3 38.5,56.6 32.7,53.3 26.9,56.6 26.9,63.3 32.7,66.6 					"/>
					<path class="st2" d="M32.7,66.9l-6-3.5v-6.9l6-3.5l6,3.5v6.9L32.7,66.9z M27.2,63.2l5.5,3.2l5.5-3.2v-6.4l-5.5-3.2l-5.5,3.2
						V63.2z"/>
				</g>
				<g>
					<polygon class="st1" points="50,63.3 50,56.6 44.2,53.3 38.5,56.6 38.5,63.3 44.2,66.6 					"/>
					<path class="st2" d="M44.2,66.9l-6-3.5v-6.9l6-3.5l6,3.5v6.9L44.2,66.9z M38.7,63.2l5.5,3.2l5.5-3.2v-6.4l-5.5-3.2l-5.5,3.2
						V63.2z"/>
				</g>
				<g>
					<polygon class="st1" points="61.5,63.3 61.5,56.6 55.8,53.3 50,56.6 50,63.3 55.8,66.6 					"/>
					<path class="st2" d="M55.8,66.9l-6-3.5v-6.9l6-3.5l6,3.5v6.9L55.8,66.9z M50.2,63.2l5.5,3.2l5.5-3.2v-6.4l-5.5-3.2l-5.5,3.2
						V63.2z"/>
				</g>
				<g>
					<polygon class="st1" points="73.1,63.3 73.1,56.6 67.3,53.3 61.5,56.6 61.5,63.3 67.3,66.6 					"/>
					<path class="st2" d="M67.3,66.9l-6-3.5v-6.9l6-3.5l6,3.5v6.9L67.3,66.9z M61.8,63.2l5.5,3.2l5.5-3.2v-6.4l-5.5-3.2l-5.5,3.2
						V63.2z"/>
				</g>
				<g>
					<polygon class="st1" points="84.6,63.3 84.6,56.6 78.8,53.3 73.1,56.6 73.1,63.3 78.8,66.6 					"/>
					<path class="st2" d="M78.8,66.9l-6-3.5v-6.9l6-3.5l6,3.5v6.9L78.8,66.9z M73.3,63.2l5.5,3.2l5.5-3.2v-6.4l-5.5-3.2l-5.5,3.2
						V63.2z"/>
				</g>
				<g>
					<polygon class="st1" points="3.9,63.3 3.9,56.6 -1.9,53.3 -7.7,56.6 -7.7,63.3 -1.9,66.6 					"/>
					<path class="st2" d="M-1.9,66.9l-6-3.5v-6.9l6-3.5l6,3.5v6.9L-1.9,66.9z M-7.4,63.2l5.5,3.2l5.5-3.2v-6.4l-5.5-3.2l-5.5,3.2
						V63.2z"/>
				</g>
				<g>
					<polygon class="st1" points="9.6,73.2 9.6,66.6 3.9,63.2 -1.9,66.6 -1.9,73.2 3.9,76.6 					"/>
					<path class="st2" d="M3.9,76.8l-6-3.5v-6.9l6-3.5l6,3.5v6.9L3.9,76.8z M-1.6,73.1l5.5,3.2l5.5-3.2v-6.4l-5.5-3.2l-5.5,3.2V73.1
						z"/>
				</g>
				<g>
					<polygon class="st1" points="21.2,73.2 21.2,66.6 15.4,63.2 9.6,66.6 9.6,73.2 15.4,76.6 					"/>
					<path class="st2" d="M15.4,76.8l-6-3.5v-6.9l6-3.5l6,3.5v6.9L15.4,76.8z M9.9,73.1l5.5,3.2l5.5-3.2v-6.4l-5.5-3.2l-5.5,3.2
						V73.1z"/>
				</g>
				<g>
					<polygon class="st1" points="32.7,73.2 32.7,66.6 26.9,63.2 21.2,66.6 21.2,73.2 26.9,76.6 					"/>
					<path class="st2" d="M26.9,76.8l-6-3.5v-6.9l6-3.5l6,3.5v6.9L26.9,76.8z M21.4,73.1l5.5,3.2l5.5-3.2v-6.4l-5.5-3.2l-5.5,3.2
						V73.1z"/>
				</g>
				<g>
					<polygon class="st1" points="44.2,73.2 44.2,66.6 38.5,63.2 32.7,66.6 32.7,73.2 38.5,76.6 					"/>
					<path class="st2" d="M38.5,76.8l-6-3.5v-6.9l6-3.5l6,3.5v6.9L38.5,76.8z M33,73.1l5.5,3.2l5.5-3.2v-6.4l-5.5-3.2L33,66.7V73.1z
						"/>
				</g>
				<g>
					<polygon class="st1" points="55.8,73.2 55.8,66.6 50,63.2 44.2,66.6 44.2,73.2 50,76.6 					"/>
					<path class="st2" d="M50,76.8l-6-3.5v-6.9l6-3.5l6,3.5v6.9L50,76.8z M44.5,73.1l5.5,3.2l5.5-3.2v-6.4L50,63.5l-5.5,3.2V73.1z"
						/>
				</g>
				<g>
					<polygon class="st1" points="67.3,73.2 67.3,66.6 61.5,63.2 55.8,66.6 55.8,73.2 61.5,76.6 					"/>
					<path class="st2" d="M61.5,76.8l-6-3.5v-6.9l6-3.5l6,3.5v6.9L61.5,76.8z M56,73.1l5.5,3.2l5.5-3.2v-6.4l-5.5-3.2L56,66.7V73.1z
						"/>
				</g>
				<g>
					<polygon class="st1" points="78.8,73.2 78.8,66.6 73.1,63.2 67.3,66.6 67.3,73.2 73.1,76.6 					"/>
					<path class="st2" d="M73.1,76.8l-6-3.5v-6.9l6-3.5l6,3.5v6.9L73.1,76.8z M67.5,73.1l5.5,3.2l5.5-3.2v-6.4l-5.5-3.2l-5.5,3.2
						V73.1z"/>
				</g>
				<g>
					<polygon class="st1" points="15.4,83.2 15.4,76.5 9.6,73.2 3.9,76.5 3.9,83.2 9.6,86.5 					"/>
					<path class="st2" d="M9.6,86.8l-6-3.5v-6.9l6-3.5l6,3.5v6.9L9.6,86.8z M4.1,83.1l5.5,3.2l5.5-3.2v-6.4l-5.5-3.2l-5.5,3.2V83.1z
						"/>
				</g>
				<g>
					<polygon class="st1" points="26.9,83.2 26.9,76.5 21.2,73.2 15.4,76.5 15.4,83.2 21.2,86.5 					"/>
					<path class="st2" d="M21.2,86.8l-6-3.5v-6.9l6-3.5l6,3.5v6.9L21.2,86.8z M15.7,83.1l5.5,3.2l5.5-3.2v-6.4l-5.5-3.2l-5.5,3.2
						V83.1z"/>
				</g>
				<g>
					<polygon class="st1" points="38.5,83.2 38.5,76.5 32.7,73.2 26.9,76.5 26.9,83.2 32.7,86.5 					"/>
					<path class="st2" d="M32.7,86.8l-6-3.5v-6.9l6-3.5l6,3.5v6.9L32.7,86.8z M27.2,83.1l5.5,3.2l5.5-3.2v-6.4l-5.5-3.2l-5.5,3.2
						V83.1z"/>
				</g>
				<g>
					<polygon class="st1" points="50,83.2 50,76.5 44.2,73.2 38.5,76.5 38.5,83.2 44.2,86.5 					"/>
					<path class="st2" d="M44.2,86.8l-6-3.5v-6.9l6-3.5l6,3.5v6.9L44.2,86.8z M38.7,83.1l5.5,3.2l5.5-3.2v-6.4l-5.5-3.2l-5.5,3.2
						V83.1z"/>
				</g>
				<g>
					<polygon class="st1" points="61.5,83.2 61.5,76.5 55.8,73.2 50,76.5 50,83.2 55.8,86.5 					"/>
					<path class="st2" d="M55.8,86.8l-6-3.5v-6.9l6-3.5l6,3.5v6.9L55.8,86.8z M50.2,83.1l5.5,3.2l5.5-3.2v-6.4l-5.5-3.2l-5.5,3.2
						V83.1z"/>
				</g>
				<g>
					<polygon class="st1" points="73.1,83.2 73.1,76.5 67.3,73.2 61.5,76.5 61.5,83.2 67.3,86.5 					"/>
					<path class="st2" d="M67.3,86.8l-6-3.5v-6.9l6-3.5l6,3.5v6.9L67.3,86.8z M61.8,83.1l5.5,3.2l5.5-3.2v-6.4l-5.5-3.2l-5.5,3.2
						V83.1z"/>
				</g>
				<g>
					<polygon class="st1" points="84.6,83.2 84.6,76.5 78.8,73.2 73.1,76.5 73.1,83.2 78.8,86.5 					"/>
					<path class="st2" d="M78.8,86.8l-6-3.5v-6.9l6-3.5l6,3.5v6.9L78.8,86.8z M73.3,83.1l5.5,3.2l5.5-3.2v-6.4l-5.5-3.2l-5.5,3.2
						V83.1z"/>
				</g>
				<g>
					<polygon class="st1" points="21.2,93.1 21.2,86.5 15.4,83.1 9.6,86.5 9.6,93.1 15.4,96.5 					"/>
					<path class="st2" d="M15.4,96.7l-6-3.5v-6.9l6-3.5l6,3.5v6.9L15.4,96.7z M9.9,93l5.5,3.2l5.5-3.2v-6.4l-5.5-3.2l-5.5,3.2V93z"
						/>
				</g>
				<g>
					<polygon class="st1" points="32.7,93.1 32.7,86.5 26.9,83.1 21.2,86.5 21.2,93.1 26.9,96.5 					"/>
					<path class="st2" d="M26.9,96.7l-6-3.5v-6.9l6-3.5l6,3.5v6.9L26.9,96.7z M21.4,93l5.5,3.2l5.5-3.2v-6.4l-5.5-3.2l-5.5,3.2V93z"
						/>
				</g>
				<g>
					<polygon class="st1" points="44.2,93.1 44.2,86.5 38.5,83.1 32.7,86.5 32.7,93.1 38.5,96.5 					"/>
					<path class="st2" d="M38.5,96.7l-6-3.5v-6.9l6-3.5l6,3.5v6.9L38.5,96.7z M33,93l5.5,3.2L44,93v-6.4l-5.5-3.2L33,86.6V93z"/>
				</g>
				<g>
					<polygon class="st1" points="55.8,93.1 55.8,86.5 50,83.1 44.2,86.5 44.2,93.1 50,96.5 					"/>
					<path class="st2" d="M50,96.7l-6-3.5v-6.9l6-3.5l6,3.5v6.9L50,96.7z M44.5,93l5.5,3.2l5.5-3.2v-6.4L50,83.4l-5.5,3.2V93z"/>
				</g>
				<g>
					<polygon class="st1" points="67.3,93.1 67.3,86.5 61.5,83.1 55.8,86.5 55.8,93.1 61.5,96.5 					"/>
					<path class="st2" d="M61.5,96.7l-6-3.5v-6.9l6-3.5l6,3.5v6.9L61.5,96.7z M56,93l5.5,3.2L67,93v-6.4l-5.5-3.2L56,86.6V93z"/>
				</g>
				<g>
					<polygon class="st1" points="78.8,93.1 78.8,86.5 73.1,83.1 67.3,86.5 67.3,93.1 73.1,96.5 					"/>
					<path class="st2" d="M73.1,96.7l-6-3.5v-6.9l6-3.5l6,3.5v6.9L73.1,96.7z M67.5,93l5.5,3.2l5.5-3.2v-6.4l-5.5-3.2l-5.5,3.2V93z"
						/>
				</g>
				<g>
					<polygon class="st1" points="90.4,33.4 90.4,26.8 84.6,23.4 78.8,26.8 78.8,33.4 84.6,36.8 					"/>
					<path class="st2" d="M84.6,37.1l-6-3.5v-6.9l6-3.5l6,3.5v6.9L84.6,37.1z M79.1,33.3l5.5,3.2l5.5-3.2v-6.4l-5.5-3.2l-5.5,3.2
						V33.3z"/>
				</g>
				<g>
					<polygon class="st1" points="90.4,53.3 90.4,46.7 84.6,43.3 78.8,46.7 78.8,53.3 84.6,56.7 					"/>
					<path class="st2" d="M84.6,56.9l-6-3.5v-6.9l6-3.5l6,3.5v6.9L84.6,56.9z M79.1,53.2l5.5,3.2l5.5-3.2v-6.4l-5.5-3.2l-5.5,3.2
						V53.2z"/>
				</g>
				<g>
					<polygon class="st1" points="90.4,73.2 90.4,66.6 84.6,63.2 78.8,66.6 78.8,73.2 84.6,76.6 					"/>
					<path class="st2" d="M84.6,76.8l-6-3.5v-6.9l6-3.5l6,3.5v6.9L84.6,76.8z M79.1,73.1l5.5,3.2l5.5-3.2v-6.4l-5.5-3.2l-5.5,3.2
						V73.1z"/>
				</g>
				<g>
					<polygon class="st1" points="90.4,93.1 90.4,86.5 84.6,83.1 78.8,86.5 78.8,93.1 84.6,96.5 					"/>
					<path class="st2" d="M84.6,96.7l-6-3.5v-6.9l6-3.5l6,3.5v6.9L84.6,96.7z M79.1,93l5.5,3.2l5.5-3.2v-6.4l-5.5-3.2l-5.5,3.2V93z"
						/>
				</g>
				<g>
					<polygon class="st1" points="101.9,33.4 101.9,26.8 96.1,23.4 90.4,26.8 90.4,33.4 96.1,36.8 					"/>
					<path class="st2" d="M96.1,37.1l-6-3.5v-6.9l6-3.5l6,3.5v6.9L96.1,37.1z M90.6,33.3l5.5,3.2l5.5-3.2v-6.4l-5.5-3.2l-5.5,3.2
						V33.3z"/>
				</g>
				<g>
					<polygon class="st1" points="101.9,53.3 101.9,46.7 96.1,43.3 90.4,46.7 90.4,53.3 96.1,56.7 					"/>
					<path class="st2" d="M96.1,56.9l-6-3.5v-6.9l6-3.5l6,3.5v6.9L96.1,56.9z M90.6,53.2l5.5,3.2l5.5-3.2v-6.4l-5.5-3.2l-5.5,3.2
						V53.2z"/>
				</g>
				<g>
					<polygon class="st1" points="101.9,73.2 101.9,66.6 96.1,63.2 90.4,66.6 90.4,73.2 96.1,76.6 					"/>
					<path class="st2" d="M96.1,76.8l-6-3.5v-6.9l6-3.5l6,3.5v6.9L96.1,76.8z M90.6,73.1l5.5,3.2l5.5-3.2v-6.4l-5.5-3.2l-5.5,3.2
						V73.1z"/>
				</g>
				<g>
					<polygon class="st1" points="38.5,103.1 38.5,96.4 32.7,93.1 26.9,96.4 26.9,103.1 32.7,106.4 					"/>
					<path class="st2" d="M32.7,106.7l-6-3.5v-6.9l6-3.5l6,3.5v6.9L32.7,106.7z M27.2,103l5.5,3.2l5.5-3.2v-6.4l-5.5-3.2l-5.5,3.2
						V103z"/>
				</g>
				<g>
					<polygon class="st1" points="50,103.1 50,96.4 44.2,93.1 38.5,96.4 38.5,103.1 44.2,106.4 					"/>
					<path class="st2" d="M44.2,106.7l-6-3.5v-6.9l6-3.5l6,3.5v6.9L44.2,106.7z M38.7,103l5.5,3.2l5.5-3.2v-6.4l-5.5-3.2l-5.5,3.2
						V103z"/>
				</g>
				<g>
					<polygon class="st1" points="61.5,103.1 61.5,96.4 55.8,93.1 50,96.4 50,103.1 55.8,106.4 					"/>
					<path class="st2" d="M55.8,106.7l-6-3.5v-6.9l6-3.5l6,3.5v6.9L55.8,106.7z M50.2,103l5.5,3.2l5.5-3.2v-6.4l-5.5-3.2l-5.5,3.2
						V103z"/>
				</g>
				<g>
					<polygon class="st1" points="73.1,103.1 73.1,96.4 67.3,93.1 61.5,96.4 61.5,103.1 67.3,106.4 					"/>
					<path class="st2" d="M67.3,106.7l-6-3.5v-6.9l6-3.5l6,3.5v6.9L67.3,106.7z M61.8,103l5.5,3.2l5.5-3.2v-6.4l-5.5-3.2l-5.5,3.2
						V103z"/>
				</g>
				<g>
					<polygon class="st1" points="26.9,23.5 26.9,16.8 21.2,13.5 15.4,16.8 15.4,23.5 21.2,26.8 					"/>
					<path class="st2" d="M21.2,27.1l-6-3.5v-6.9l6-3.5l6,3.5v6.9L21.2,27.1z M15.7,23.3l5.5,3.2l5.5-3.2v-6.4l-5.5-3.2l-5.5,3.2
						V23.3z"/>
				</g>
				<g>
					<polygon class="st1" points="38.5,23.5 38.5,16.8 32.7,13.5 26.9,16.8 26.9,23.5 32.7,26.8 					"/>
					<path class="st2" d="M32.7,27.1l-6-3.5v-6.9l6-3.5l6,3.5v6.9L32.7,27.1z M27.2,23.3l5.5,3.2l5.5-3.2v-6.4l-5.5-3.2l-5.5,3.2
						V23.3z"/>
				</g>
				<g>
					<polygon class="st1" points="50,23.5 50,16.8 44.2,13.5 38.5,16.8 38.5,23.5 44.2,26.8 					"/>
					<path class="st2" d="M44.2,27.1l-6-3.5v-6.9l6-3.5l6,3.5v6.9L44.2,27.1z M38.7,23.3l5.5,3.2l5.5-3.2v-6.4l-5.5-3.2l-5.5,3.2
						V23.3z"/>
				</g>
				<g>
					<polygon class="st1" points="61.5,23.5 61.5,16.8 55.8,13.5 50,16.8 50,23.5 55.8,26.8 					"/>
					<path class="st2" d="M55.8,27.1l-6-3.5v-6.9l6-3.5l6,3.5v6.9L55.8,27.1z M50.2,23.3l5.5,3.2l5.5-3.2v-6.4l-5.5-3.2l-5.5,3.2
						V23.3z"/>
				</g>
				<g>
					<polygon class="st1" points="73.1,23.5 73.1,16.8 67.3,13.5 61.5,16.8 61.5,23.5 67.3,26.8 					"/>
					<path class="st2" d="M67.3,27.1l-6-3.5v-6.9l6-3.5l6,3.5v6.9L67.3,27.1z M61.8,23.3l5.5,3.2l5.5-3.2v-6.4l-5.5-3.2l-5.5,3.2
						V23.3z"/>
				</g>
				<g>
					<polygon class="st1" points="84.6,23.5 84.6,16.8 78.8,13.5 73.1,16.8 73.1,23.5 78.8,26.8 					"/>
					<path class="st2" d="M78.8,27.1l-6-3.5v-6.9l6-3.5l6,3.5v6.9L78.8,27.1z M73.3,23.3l5.5,3.2l5.5-3.2v-6.4l-5.5-3.2l-5.5,3.2
						V23.3z"/>
				</g>
				<g>
					<polygon class="st1" points="96.1,43.4 96.1,36.8 90.4,33.4 84.6,36.8 84.6,43.4 90.4,46.7 					"/>
					<path class="st2" d="M90.4,47l-6-3.5v-6.9l6-3.5l6,3.5v6.9L90.4,47z M84.8,43.3l5.5,3.2l5.5-3.2v-6.4l-5.5-3.2l-5.5,3.2V43.3z"
						/>
				</g>
				<g>
					<polygon class="st1" points="96.1,63.3 96.1,56.6 90.4,53.3 84.6,56.6 84.6,63.3 90.4,66.6 					"/>
					<path class="st2" d="M90.4,66.9l-6-3.5v-6.9l6-3.5l6,3.5v6.9L90.4,66.9z M84.8,63.2l5.5,3.2l5.5-3.2v-6.4l-5.5-3.2l-5.5,3.2
						V63.2z"/>
				</g>
				<g>
					<polygon class="st1" points="96.1,83.2 96.1,76.5 90.4,73.2 84.6,76.5 84.6,83.2 90.4,86.5 					"/>
					<path class="st2" d="M90.4,86.8l-6-3.5v-6.9l6-3.5l6,3.5v6.9L90.4,86.8z M84.8,83.1l5.5,3.2l5.5-3.2v-6.4l-5.5-3.2l-5.5,3.2
						V83.1z"/>
				</g>
				<g>
					<polygon class="st1" points="96.1,23.5 96.1,16.8 90.4,13.5 84.6,16.8 84.6,23.5 90.4,26.8 					"/>
					<path class="st2" d="M90.4,27.1l-6-3.5v-6.9l6-3.5l6,3.5v6.9L90.4,27.1z M84.8,23.3l5.5,3.2l5.5-3.2v-6.4l-5.5-3.2l-5.5,3.2
						V23.3z"/>
				</g>
				<g>
					<polygon class="st1" points="107.7,43.4 107.7,36.8 101.9,33.4 96.1,36.8 96.1,43.4 101.9,46.7 					"/>
					<path class="st2" d="M101.9,47l-6-3.5v-6.9l6-3.5l6,3.5v6.9L101.9,47z M96.4,43.3l5.5,3.2l5.5-3.2v-6.4l-5.5-3.2l-5.5,3.2V43.3
						z"/>
				</g>
				<g>
					<polygon class="st1" points="107.7,63.3 107.7,56.6 101.9,53.3 96.1,56.6 96.1,63.3 101.9,66.6 					"/>
					<path class="st2" d="M101.9,66.9l-6-3.5v-6.9l6-3.5l6,3.5v6.9L101.9,66.9z M96.4,63.2l5.5,3.2l5.5-3.2v-6.4l-5.5-3.2l-5.5,3.2
						V63.2z"/>
				</g>
				<g>
					<polygon class="st1" points="21.2,13.5 21.2,6.9 15.4,3.6 9.6,6.9 9.6,13.5 15.4,16.9 					"/>
					<path class="st2" d="M15.4,17.2l-6-3.5V6.7l6-3.5l6,3.5v6.9L15.4,17.2z M9.9,13.4l5.5,3.2l5.5-3.2V7l-5.5-3.2L9.9,7V13.4z"/>
				</g>
				<g>
					<polygon class="st1" points="32.7,13.5 32.7,6.9 26.9,3.6 21.2,6.9 21.2,13.5 26.9,16.9 					"/>
					<path class="st2" d="M26.9,17.2l-6-3.5V6.7l6-3.5l6,3.5v6.9L26.9,17.2z M21.4,13.4l5.5,3.2l5.5-3.2V7l-5.5-3.2L21.4,7V13.4z"/>
				</g>
				<g>
					<polygon class="st1" points="44.2,13.5 44.2,6.9 38.5,3.6 32.7,6.9 32.7,13.5 38.5,16.9 					"/>
					<path class="st2" d="M38.5,17.2l-6-3.5V6.7l6-3.5l6,3.5v6.9L38.5,17.2z M33,13.4l5.5,3.2l5.5-3.2V7l-5.5-3.2L33,7V13.4z"/>
				</g>
				<g>
					<polygon class="st1" points="55.8,13.5 55.8,6.9 50,3.6 44.2,6.9 44.2,13.5 50,16.9 					"/>
					<path class="st2" d="M50,17.2l-6-3.5V6.7l6-3.5l6,3.5v6.9L50,17.2z M44.5,13.4l5.5,3.2l5.5-3.2V7L50,3.8L44.5,7V13.4z"/>
				</g>
				<g>
					<polygon class="st1" points="67.3,13.5 67.3,6.9 61.5,3.6 55.8,6.9 55.8,13.5 61.5,16.9 					"/>
					<path class="st2" d="M61.5,17.2l-6-3.5V6.7l6-3.5l6,3.5v6.9L61.5,17.2z M56,13.4l5.5,3.2l5.5-3.2V7l-5.5-3.2L56,7V13.4z"/>
				</g>
				<g>
					<polygon class="st1" points="78.8,13.5 78.8,6.9 73.1,3.6 67.3,6.9 67.3,13.5 73.1,16.9 					"/>
					<path class="st2" d="M73.1,17.2l-6-3.5V6.7l6-3.5l6,3.5v6.9L73.1,17.2z M67.5,13.4l5.5,3.2l5.5-3.2V7l-5.5-3.2L67.5,7V13.4z"/>
				</g>
				<g>
					<polygon class="st1" points="90.4,13.5 90.4,6.9 84.6,3.6 78.8,6.9 78.8,13.5 84.6,16.9 					"/>
					<path class="st2" d="M84.6,17.2l-6-3.5V6.7l6-3.5l6,3.5v6.9L84.6,17.2z M79.1,13.4l5.5,3.2l5.5-3.2V7l-5.5-3.2L79.1,7V13.4z"/>
				</g>
				<g>
					<polygon class="st1" points="38.5,3.6 38.5,-3.1 32.7,-6.4 26.9,-3.1 26.9,3.6 32.7,6.9 					"/>
					<path class="st2" d="M32.7,7.2l-6-3.5v-6.9l6-3.5l6,3.5v6.9L32.7,7.2z M27.2,3.4l5.5,3.2l5.5-3.2V-3l-5.5-3.2L27.2-3V3.4z"/>
				</g>
				<g>
					<polygon class="st1" points="50,3.6 50,-3.1 44.2,-6.4 38.5,-3.1 38.5,3.6 44.2,6.9 					"/>
					<path class="st2" d="M44.2,7.2l-6-3.5v-6.9l6-3.5l6,3.5v6.9L44.2,7.2z M38.7,3.4l5.5,3.2l5.5-3.2V-3l-5.5-3.2L38.7-3V3.4z"/>
				</g>
				<g>
					<polygon class="st1" points="61.5,3.6 61.5,-3.1 55.8,-6.4 50,-3.1 50,3.6 55.8,6.9 					"/>
					<path class="st2" d="M55.8,7.2l-6-3.5v-6.9l6-3.5l6,3.5v6.9L55.8,7.2z M50.2,3.4l5.5,3.2l5.5-3.2V-3l-5.5-3.2L50.2-3V3.4z"/>
				</g>
				<g>
					<polygon class="st1" points="73.1,3.6 73.1,-3.1 67.3,-6.4 61.5,-3.1 61.5,3.6 67.3,6.9 					"/>
					<path class="st2" d="M67.3,7.2l-6-3.5v-6.9l6-3.5l6,3.5v6.9L67.3,7.2z M61.8,3.4l5.5,3.2l5.5-3.2V-3l-5.5-3.2L61.8-3V3.4z"/>
				</g>
			</g>
		</g>
		<path class="st2" d="M50,3c25.9,0,47,21.1,47,47c0,25.9-21.1,47-47,47C24.1,97,3,75.9,3,50C3,24.1,24.1,3,50,3 M50,0L50,0
			C22.4,0,0,22.4,0,50v0c0,27.6,22.4,50,50,50h0c27.6,0,50-22.4,50-50v0C100,22.4,77.6,0,50,0L50,0z"/>
	</g>
</g>
<g id="Tint">
</g>
</svg>
