<?xml version="1.0" encoding="utf-8"?>
<!-- Generator: Adobe Illustrator 26.3.1, SVG Export Plug-In . SVG Version: 6.00 Build 0)  -->
<svg version="1.1" xmlns="http://www.w3.org/2000/svg" xmlns:xlink="http://www.w3.org/1999/xlink" x="0px" y="0px"
	 viewBox="0 0 99.9 90" style="enable-background:new 0 0 99.9 90;" xml:space="preserve">
<g id="BG">
</g>
<g id="Shadow">
</g>
<g id="Color">
</g>
<g id="Badge">
</g>
<g id="Details">
	<g>
		<path d="M-49.9,60.5v-28c0,0,0-0.1,0-0.1c0-0.5-0.1-1-0.4-1.5c-0.3-0.5-0.6-0.8-1.1-1.1l-0.1,0l0,0l-24.3-13.9
			c-0.5-0.3-1-0.4-1.5-0.4c-0.5,0-1,0.1-1.5,0.4l-24.9,13.9l0,0c0,0,0,0,0,0l0,0l0,0c-0.1,0.1-0.2,0.1-0.2,0.2l0,0
			c-0.1,0.1-0.2,0.1-0.3,0.2c-0.1,0.1-0.2,0.2-0.2,0.3l0,0c-0.1,0.1-0.2,0.2-0.2,0.3c-0.1,0.1-0.1,0.2-0.2,0.3l0,0
			c-0.1,0.1-0.1,0.2-0.1,0.3c0,0.1,0,0.2-0.1,0.4l0,0.1c0,0.1,0,0.2,0,0.3l0,0l0,0.1c0,0,0,0,0,0l0,0.1l0,0v28.1
			c0,1.1,0.6,2.1,1.5,2.6l24.6,14.3l0,0l0.1,0.1c0,0,0,0,0,0l0.1,0l0,0c0.1,0.1,0.2,0.1,0.3,0.1l0.1,0c0.1,0,0.2,0.1,0.3,0.1
			c0.3,0.1,0.5,0.1,0.8,0.1c0.3,0,0.5,0,0.8-0.1c0.1,0,0.2-0.1,0.3-0.1l0,0c0.1,0,0.2-0.1,0.3-0.1l0,0l0.1,0c0,0,0,0,0,0l0.1-0.1
			l0,0l24.6-14.3C-50.4,62.6-49.9,61.6-49.9,60.5z M-80.6,48.4v21.2l-18.7-10.9V37.6L-80.6,48.4z M-58.9,32.4l-18.7,10.9l-18.6-10.8
			l18.8-10.5L-58.9,32.4z M-55.9,37.6v21.2l-18.7,10.9V48.4L-55.9,37.6z"/>
		<path d="M-117.5,24.1c1.7,0,3-1.3,3-3v-9.5c0-1.1,0.9-1.9,1.9-1.9h9.5c1.7,0,3-1.3,3-3c0-1.7-1.3-3-3-3h-9.5
			c-4.4,0-7.9,3.6-7.9,7.9v9.5C-120.5,22.7-119.2,24.1-117.5,24.1z"/>
		<path d="M-42.5,3.7H-52c-1.7,0-3,1.3-3,3c0,1.7,1.3,3,3,3h9.5c1.1,0,1.9,0.9,1.9,1.9v9.5c0,1.7,1.3,3,3,3c1.7,0,3-1.3,3-3v-9.5
			C-34.5,7.2-38.1,3.7-42.5,3.7z"/>
		<path d="M-37.5,68.9c-1.7,0-3,1.3-3,3v9.5c0,1.1-0.9,1.9-1.9,1.9H-52c-1.7,0-3,1.3-3,3c0,1.7,1.3,3,3,3h9.5c4.4,0,7.9-3.6,7.9-7.9
			v-9.5C-34.5,70.2-35.9,68.9-37.5,68.9z"/>
		<path d="M-103.1,83.3h-9.5c-1.1,0-1.9-0.9-1.9-1.9v-9.5c0-1.7-1.3-3-3-3c-1.7,0-3,1.3-3,3v9.5c0,4.4,3.6,7.9,7.9,7.9h9.5
			c1.7,0,3-1.3,3-3C-100.1,84.7-101.5,83.3-103.1,83.3z"/>
	</g>
	<g>
		<g>
			<path d="M85,15l-65,65c-1.4,1.4-3.6,1.4-4.9,0c-1.4-1.4-1.4-3.6,0-4.9l65-65c1.4-1.4,3.6-1.4,4.9,0S86.3,13.6,85,15z"/>
		</g>
		<g>
			<path d="M80,80L15,15c-1.4-1.4-1.4-3.6,0-4.9s3.6-1.4,4.9,0l65,65c1.4,1.4,1.4,3.6,0,4.9C83.6,81.4,81.4,81.4,80,80z"/>
		</g>
	</g>
</g>
<g id="Tint">
</g>
</svg>
