<?xml version="1.0" encoding="utf-8"?>
<!-- Generator: Adobe Illustrator 26.3.1, SVG Export Plug-In . SVG Version: 6.00 Build 0)  -->
<svg version="1.1" xmlns="http://www.w3.org/2000/svg" xmlns:xlink="http://www.w3.org/1999/xlink" x="0px" y="0px"
	 viewBox="0 0 100 100" style="enable-background:new 0 0 100 100;" xml:space="preserve">
<style type="text/css">
	.st0{fill:#E7E8BF;}
	.st1{fill:#231F20;}
</style>
<g id="BG">
</g>
<g id="Shadow">
</g>
<g id="Color">
</g>
<g id="Badge">
</g>
<g id="Details">
	<g>
		<g>
			<defs>
				<path id="SVGID_1_" d="M50,100L50,100C22.4,100,0,77.6,0,50v0C0,22.4,22.4,0,50,0h0c27.6,0,50,22.4,50,50v0
					C100,77.6,77.6,100,50,100z"/>
			</defs>
			<clipPath id="SVGID_00000049203540139004527350000008167000714803728769_">
				<use xlink:href="#SVGID_1_"  style="overflow:visible;"/>
			</clipPath>
		</g>
		<g>
			<g>
				<circle class="st0" cx="50" cy="50" r="48.5"/>
			</g>
			<g>
				<path class="st1" d="M50,3c25.9,0,47,21.1,47,47c0,25.9-21.1,47-47,47C24.1,97,3,75.9,3,50C3,24.1,24.1,3,50,3 M50,0L50,0
					C22.4,0,0,22.4,0,50v0c0,27.6,22.4,50,50,50h0c27.6,0,50-22.4,50-50v0C100,22.4,77.6,0,50,0L50,0z"/>
			</g>
		</g>
		<g>
			
				<rect x="-0.6" y="49.5" transform="matrix(0.7071 -0.7071 0.7071 0.7071 -20.9282 48.9464)" class="st1" width="98.4" height="0.5"/>
		</g>
		<g>
			
				<rect x="-10.6" y="31.1" transform="matrix(0.7071 -0.7071 0.7071 0.7071 -13.5711 29.9385)" class="st1" width="80" height="0.5"/>
		</g>
		<g>
			
				<rect x="-7.8" y="27" transform="matrix(0.7071 -0.7071 0.7071 0.7071 -11.2399 27.276)" class="st1" width="70.2" height="0.5"/>
		</g>
	</g>
</g>
<g id="Tint">
</g>
</svg>
