<?xml version="1.0" encoding="utf-8"?>
<!-- Generator: Adobe Illustrator 26.3.1, SVG Export Plug-In . SVG Version: 6.00 Build 0)  -->
<svg version="1.1" xmlns="http://www.w3.org/2000/svg" xmlns:xlink="http://www.w3.org/1999/xlink" x="0px" y="0px"
	 viewBox="0 0 99.9 90" style="enable-background:new 0 0 99.9 90;" xml:space="preserve">
<g id="BG">
</g>
<g id="Shadow">
</g>
<g id="Color">
</g>
<g id="Badge">
</g>
<g id="Details">
	<g>
		<path d="M50,57.3c-6.8,0-12.3-5.5-12.3-12.3S43.2,32.7,50,32.7S62.3,38.2,62.3,45c0,0,0,0,0,0C62.3,51.8,56.8,57.3,50,57.3z
			 M50,36.7c-4.6,0-8.3,3.7-8.3,8.3s3.7,8.3,8.3,8.3s8.3-3.7,8.3-8.3c0,0,0,0,0,0C58.3,40.4,54.5,36.7,50,36.7z"/>
		<path d="M28.1,33.4c-0.3,0-0.5-0.2-0.5-0.5v-9.8c0-0.3,0.2-0.5,0.5-0.5h9.8c0.3,0,0.5,0.2,0.5,0.5c0,0.3-0.2,0.5-0.5,0.5h-9.3v9.3
			C28.6,33.2,28.3,33.4,28.1,33.4z"/>
		<path d="M37.9,67.4h-9.8c-0.3,0-0.5-0.2-0.5-0.5v-9.8c0-0.3,0.2-0.5,0.5-0.5s0.5,0.2,0.5,0.5v9.3h9.3c0.3,0,0.5,0.2,0.5,0.5
			C38.4,67.2,38.2,67.4,37.9,67.4L37.9,67.4z"/>
		<path d="M71.9,67.4H62c-0.3,0-0.5-0.2-0.5-0.5c0-0.3,0.2-0.5,0.5-0.5h9.3v-9.3c0-0.3,0.2-0.5,0.5-0.5s0.5,0.2,0.5,0.5v9.8
			C72.4,67.2,72.1,67.4,71.9,67.4z"/>
		<path d="M71.9,33.4c-0.3,0-0.5-0.2-0.5-0.5v-9.3H62c-0.3,0-0.5-0.2-0.5-0.5s0.2-0.5,0.5-0.5h9.8c0.3,0,0.5,0.2,0.5,0.5v9.8
			C72.4,33.2,72.1,33.4,71.9,33.4z"/>
	</g>
</g>
<g id="Tint">
</g>
</svg>
